# xmcd
#
# Track frame offsets:
#	150
#	21225
#	51120
#	68507
#	93482
#	125940
#	180015
#
# Disc length: 2682 seconds
#
# Revision: 1
# Processed by: cddbd v1.5.1PL0 Copyright (c) Steve Scherf et al.
# Submitted via: CDex 1.50Beta5
#
DISCID=550a7807
DTITLE=稲葉喜美子 - 倖せの隣り
DYEAR=1993
DGENRE=Pop
TTITLE0=荒野
TTITLE1=日の出町ブルース
TTITLE2=セ・ラ・ヴィ
TTITLE3=女の時代
TTITLE4=街
TTITLE5=ヤッホー!
TTITLE6=夜汽車
EXTD=
EXTT0=
EXTT1=
EXTT2=
EXTT3=
EXTT4=
EXTT5=
EXTT6=
PLAYORDER=
